<svg fill="#054108" xmlns="http://www.w3.org/2000/svg" xmlns:xlink="http://www.w3.org/1999/xlink" version="1.1" x="0px" y="0px" viewBox="0 0 32 32" enable-background="new 0 0 32 32" xml:space="preserve"><g display="none"><rect x="-102" y="-13.5" display="inline" fill="#054108" width="430" height="210.5"></rect></g><g display="none"><g display="inline"><rect x="15.312" y="6.969" width="11.483" height="1"></rect><rect x="15.312" y="11.116" width="16.587" height="1"></rect><rect x="15.413" y="19.885" width="11.483" height="1"></rect><rect x="15.413" y="24.031" width="16.587" height="1"></rect><path d="M11.058,17.62H0v9.676h11.058V17.62z M10.058,26.296H1V18.62h9.058V26.296z"></path><path d="M3.484,19.883v5.15l4.46-2.575L3.484,19.883z M4.484,21.615l1.46,0.843l-1.46,0.843V21.615z"></path><path d="M11.058,4.704H0v9.676h11.058V4.704z M10.058,13.38H1V5.704h9.058V13.38z"></path><path d="M3.484,6.967v5.15l4.46-2.575L3.484,6.967z M4.484,8.699l1.46,0.843l-1.46,0.843V8.699z"></path></g></g><g display="none"><g display="inline"><path d="M14.922,8.27c3.659,0,7.317,0,10.976,0c0.865,0,1.779-0.839,0.416-0.839c-3.659,0-7.317,0-10.976,0    C14.474,7.43,13.559,8.27,14.922,8.27z"></path><path d="M14.927,12.232c5.285,0,10.569,0,15.854,0c0.867,0,1.77-0.844,0.408-0.844c-5.285,0-10.569,0-15.854,0    C14.468,11.388,13.564,12.232,14.927,12.232z"></path><path d="M15.206,20.583c3.659,0,7.317,0,10.976,0c1.163,0,1.241-0.799,0.041-0.799c-3.659,0-7.317,0-10.976,0    C14.084,19.784,14.006,20.583,15.206,20.583z"></path><path d="M14.813,23.693c-1.288,0,0.215,0.901,0.827,0.901c5.285,0,10.569,0,15.854,0c1.288,0-0.215-0.901-0.827-0.901    C25.382,23.693,20.097,23.693,14.813,23.693z"></path><path d="M0.391,26.993c3.474,0,6.948,0,10.421,0c0.293,0.033,0.747-0.07,0.747-0.28c0-3.08,0-6.16,0-9.24    c0-0.139-0.316-0.139-0.391-0.139c-3.523,0-7.046,0-10.569,0c-0.14,0-0.599,0.061-0.599,0.28c0,3.08,0,6.16,0,9.24    C0,26.993,0.316,26.993,0.391,26.993z M8.464,17.753c0.582,0,1.477-0.153,2.106-0.033c0.017,0.275,0,0.557,0,0.832    c0,1.018,0,2.036,0,3.054c0,1.656,0,3.312,0,4.968c-1.354,0-2.707,0-4.061,0c-1.138,0-2.275,0-3.412,0    c-0.582,0-1.477,0.153-2.106,0.033c-0.017-0.275,0-0.557,0-0.832c0-1.018,0-2.036,0-3.054c0-1.656,0-3.312,0-4.968    c1.354,0,2.707,0,4.061,0C6.189,17.753,7.326,17.753,8.464,17.753z"></path><path d="M4.195,24.714c1.421-0.82,2.842-1.639,4.263-2.459c0.111-0.064,0.179-0.173,0.044-0.251    c-1.405-0.81-2.81-1.621-4.215-2.432c-0.159-0.169-0.957-0.077-0.957,0.201c0,1.639,0,3.279,0,4.918    C3.33,24.97,4.079,24.78,4.195,24.714z M4.32,20.388c1.053,0.607,2.106,1.215,3.159,1.822c-1.053,0.607-2.106,1.215-3.159,1.822    C4.32,22.818,4.32,21.603,4.32,20.388z"></path><path d="M0.275,14.662c3.506,0,7.012,0,10.518,0c0.29,0.034,0.764-0.078,0.764-0.296c0-3.08,0-6.16,0-9.24    c0-0.102-0.21-0.129-0.273-0.129c-3.523,0-7.046,0-10.569,0c-0.172,0-0.713,0.029-0.713,0.296c0,3.08,0,6.16,0,9.24    C0.002,14.635,0.212,14.662,0.275,14.662z M8.348,5.422c0.552,0,1.649-0.211,2.225-0.025c0.077,0.206-0.001,0.614-0.001,0.834    c0,1.018,0,2.036,0,3.054c0,1.651,0,3.302,0,4.953c-1.316,0-2.632,0-3.948,0c-1.137,0-2.275,0-3.412,0    c-0.552,0-1.649,0.211-2.225,0.025c-0.077-0.206,0.001-0.614,0.001-0.834c0-1.018,0-2.036,0-3.054c0-1.651,0-3.302,0-4.952    c1.316,0,2.632,0,3.948,0C6.073,5.422,7.21,5.422,8.348,5.422z"></path><path d="M4.19,12.397c1.421-0.82,2.842-1.639,4.263-2.459c0.104-0.06,0.196-0.167,0.055-0.249    C7.101,8.878,5.694,8.066,4.287,7.254c-0.167-0.177-0.96-0.108-0.96,0.163c0,1.639,0,3.279,0,4.918    C3.327,12.61,4.065,12.469,4.19,12.397z M4.323,8.041C5.375,8.648,6.427,9.255,7.48,9.862c-1.052,0.607-2.105,1.214-3.157,1.821    C4.323,10.469,4.323,9.255,4.323,8.041z"></path></g></g><g><g><rect x="15.312" y="6.469" width="11.483" height="2"></rect><rect x="15.312" y="10.616" width="16.587" height="2"></rect><rect x="15.413" y="19.385" width="11.483" height="2"></rect><rect x="15.413" y="23.531" width="16.587" height="2"></rect><path d="M11.058,17.62H0v9.676h11.058V17.62z M9.058,25.296H2V19.62h7.058V25.296z"></path><polygon points="3.484,19.883 3.484,25.033 7.944,22.458   "></polygon><path d="M11.058,4.704H0v9.676h11.058V4.704z M9.058,12.38H2V6.704h7.058V12.38z"></path><polygon points="3.484,6.967 3.484,12.117 7.944,9.542   "></polygon></g></g><g display="none"><g display="inline"><rect x="15.312" y="7.219" width="11.483" height="0.5"></rect><rect x="15.312" y="11.366" width="16.587" height="0.5"></rect><rect x="15.413" y="20.135" width="11.483" height="0.5"></rect><rect x="15.413" y="24.281" width="16.587" height="0.5"></rect><path d="M11.058,17.62H0v9.676h11.058V17.62z M10.558,26.796H0.5V18.12h10.058V26.796z"></path><path d="M3.484,19.883v5.15l4.46-2.575L3.484,19.883z M3.984,20.749l2.96,1.709l-2.96,1.709V20.749z"></path><path d="M11.058,4.704H0v9.676h11.058V4.704z M10.558,13.88H0.5V5.204h10.058V13.88z"></path><path d="M3.484,6.967v5.15l4.46-2.575L3.484,6.967z M3.984,7.833l2.96,1.709l-2.96,1.709V7.833z"></path></g></g></svg>